<svg xmlns="http://www.w3.org/2000/svg" viewBox="-153.22540509609303 -145.7066541124226 306.45081019218605 291.4133082248452"><defs><g id="sym-MAGIC">
  <circle cx="0" cy="0" r="7" fill="none" stroke="currentColor" stroke-width="1.2"/>
  <circle cx="0" cy="0" r="3" fill="none" stroke="currentColor" stroke-width="1.2"/>
</g>
<g id="sym-CHAIN">
  <ellipse cx="0" cy="0" rx="6" ry="3.5" fill="none" stroke="currentColor" stroke-width="1.4"/>
</g>
<g id="sym-SLIP">
  <circle cx="0" cy="0" r="2.2" fill="currentColor" stroke="currentColor"/>
</g>
<g id="sym-SC">
  <line x1="-5" y1="-5" x2="5" y2="5" stroke="currentColor" stroke-width="1.6" stroke-linecap="round"/>
  <line x1="5" y1="-5" x2="-5" y2="5" stroke="currentColor" stroke-width="1.6" stroke-linecap="round"/>
</g>
<g id="sym-HDC">
  <line x1="0" y1="-7" x2="0" y2="7" stroke="currentColor" stroke-width="1.6" stroke-linecap="round"/>
  <line x1="-5" y1="-7" x2="5" y2="-7" stroke="currentColor" stroke-width="1.6" stroke-linecap="round"/>
</g>
<g id="sym-DC">
  <line x1="0" y1="-9" x2="0" y2="9" stroke="currentColor" stroke-width="1.6" stroke-linecap="round"/>
  <line x1="-5" y1="-9" x2="5" y2="-9" stroke="currentColor" stroke-width="1.6" stroke-linecap="round"/>
  <line x1="-4" y1="1" x2="4" y2="-1" stroke="currentColor" stroke-width="1.4" stroke-linecap="round"/>
</g>
<g id="sym-TR">
  <line x1="0" y1="-11" x2="0" y2="11" stroke="currentColor" stroke-width="1.6" stroke-linecap="round"/>
  <line x1="-5" y1="-11" x2="5" y2="-11" stroke="currentColor" stroke-width="1.6" stroke-linecap="round"/>
  <line x1="-4" y1="-2" x2="4" y2="-4" stroke="currentColor" stroke-width="1.4" stroke-linecap="round"/>
  <line x1="-4" y1="3" x2="4" y2="1" stroke="currentColor" stroke-width="1.4" stroke-linecap="round"/>
</g>
<g id="sym-INC">
  <line x1="-5" y1="-5" x2="0" y2="5" stroke="currentColor" stroke-width="1.6" stroke-linecap="round"/>
  <line x1="5" y1="-5" x2="0" y2="5" stroke="currentColor" stroke-width="1.6" stroke-linecap="round"/>
</g>
<g id="sym-DEC">
  <line x1="-5" y1="5" x2="0" y2="-5" stroke="currentColor" stroke-width="1.6" stroke-linecap="round"/>
  <line x1="5" y1="5" x2="0" y2="-5" stroke="currentColor" stroke-width="1.6" stroke-linecap="round"/>
</g></defs><g class="grid"><circle cx="0" cy="0" r="36" fill="none" stroke="#b0b0b0" stroke-width="0.6"/><circle cx="0" cy="0" r="96" fill="none" stroke="#b0b0b0" stroke-width="0.6"/><line x1="0" y1="0" x2="0.00" y2="-96" stroke="#b0b0b0" stroke-width="0.5"/><line x1="0" y1="0" x2="48.00" y2="-83.14" stroke="#b0b0b0" stroke-width="0.5"/><line x1="0" y1="0" x2="83.14" y2="-48" stroke="#b0b0b0" stroke-width="0.5"/><line x1="0" y1="0" x2="96" y2="0" stroke="#b0b0b0" stroke-width="0.5"/><line x1="0" y1="0" x2="83.14" y2="48.00" stroke="#b0b0b0" stroke-width="0.5"/><line x1="0" y1="0" x2="48.00" y2="83.14" stroke="#b0b0b0" stroke-width="0.5"/><line x1="0" y1="0" x2="0.00" y2="96" stroke="#b0b0b0" stroke-width="0.5"/><line x1="0" y1="0" x2="-48.00" y2="83.14" stroke="#b0b0b0" stroke-width="0.5"/><line x1="0" y1="0" x2="-83.14" y2="48.00" stroke="#b0b0b0" stroke-width="0.5"/><line x1="0" y1="0" x2="-96" y2="0.00" stroke="#b0b0b0" stroke-width="0.5"/><line x1="0" y1="0" x2="-83.14" y2="-48.00" stroke="#b0b0b0" stroke-width="0.5"/><line x1="0" y1="0" x2="-48.00" y2="-83.14" stroke="#b0b0b0" stroke-width="0.5"/><circle cx="0" cy="0" r="1.5" fill="#808080"/></g><g class="connections"><line x1="-22.95" y1="-13.25" x2="0.00" y2="-100.50" stroke="#909090" stroke-width="0.8" stroke-dasharray="2 2"/><line x1="-22.95" y1="-13.25" x2="0.00" y2="-100.50" stroke="#909090" stroke-width="0.8" stroke-dasharray="2 2"/><line x1="-22.95" y1="-13.25" x2="-8.87" y2="-112.11" stroke="#909090" stroke-width="0.8" stroke-dasharray="2 2"/><line x1="-22.95" y1="-13.25" x2="-18.69" y2="-120.55" stroke="#909090" stroke-width="0.8" stroke-dasharray="2 2"/><line x1="-34.21" y1="-19.75" x2="-32.61" y2="-121.71" stroke="#909090" stroke-width="0.8" stroke-dasharray="2 2"/><line x1="-34.21" y1="-19.75" x2="-54.09" y2="-117.99" stroke="#909090" stroke-width="0.8" stroke-dasharray="2 2"/><line x1="-34.21" y1="-19.75" x2="-64.35" y2="-110.13" stroke="#909090" stroke-width="0.8" stroke-dasharray="2 2"/><line x1="-34.21" y1="-19.75" x2="-71.59" y2="-99.38" stroke="#909090" stroke-width="0.8" stroke-dasharray="2 2"/><line x1="-34.21" y1="-19.75" x2="-78.49" y2="-78.49" stroke="#909090" stroke-width="0.8" stroke-dasharray="2 2"/><line x1="-34.21" y1="-19.75" x2="-88.06" y2="-67.57" stroke="#909090" stroke-width="0.8" stroke-dasharray="2 2"/><line x1="-57.16" y1="-33.00" x2="-87.04" y2="-50.25" stroke="#909090" stroke-width="0.8" stroke-dasharray="2 2"/><line x1="-57.16" y1="-33.00" x2="-101.52" y2="-48.37" stroke="#909090" stroke-width="0.8" stroke-dasharray="2 2"/><line x1="-57.16" y1="-33.00" x2="-113.74" y2="-44.09" stroke="#909090" stroke-width="0.8" stroke-dasharray="2 2"/><line x1="-66" y1="-0.00" x2="-121.71" y2="-32.61" stroke="#909090" stroke-width="0.8" stroke-dasharray="2 2"/><line x1="-66" y1="-0.00" x2="-129.23" y2="-12.15" stroke="#909090" stroke-width="0.8" stroke-dasharray="2 2"/><line x1="-66" y1="-0.00" x2="-127.55" y2="0.66" stroke="#909090" stroke-width="0.8" stroke-dasharray="2 2"/><line x1="-66" y1="-0.00" x2="-121.86" y2="12.31" stroke="#909090" stroke-width="0.8" stroke-dasharray="2 2"/><line x1="-66" y1="-0.00" x2="-107.22" y2="28.73" stroke="#909090" stroke-width="0.8" stroke-dasharray="2 2"/><line x1="-66" y1="-0.00" x2="-102.55" y2="42.48" stroke="#909090" stroke-width="0.8" stroke-dasharray="2 2"/><line x1="-57.16" y1="33.00" x2="-87.04" y2="50.25" stroke="#909090" stroke-width="0.8" stroke-dasharray="2 2"/><line x1="-57.16" y1="33.00" x2="-92.65" y2="63.74" stroke="#909090" stroke-width="0.8" stroke-dasharray="2 2"/><line x1="-57.16" y1="33.00" x2="-95.05" y2="76.46" stroke="#909090" stroke-width="0.8" stroke-dasharray="2 2"/><line x1="-33.00" y1="57.16" x2="-89.10" y2="89.10" stroke="#909090" stroke-width="0.8" stroke-dasharray="2 2"/><line x1="-33.00" y1="57.16" x2="-75.14" y2="105.84" stroke="#909090" stroke-width="0.8" stroke-dasharray="2 2"/><line x1="-33.00" y1="57.16" x2="-63.20" y2="110.79" stroke="#909090" stroke-width="0.8" stroke-dasharray="2 2"/><line x1="-33.00" y1="57.16" x2="-50.27" y2="111.69" stroke="#909090" stroke-width="0.8" stroke-dasharray="2 2"/><line x1="-33.00" y1="57.16" x2="-28.73" y2="107.22" stroke="#909090" stroke-width="0.8" stroke-dasharray="2 2"/><line x1="-33.00" y1="57.16" x2="-14.49" y2="110.05" stroke="#909090" stroke-width="0.8" stroke-dasharray="2 2"/><line x1="-0.00" y1="66" x2="-0.00" y2="100.50" stroke="#909090" stroke-width="0.8" stroke-dasharray="2 2"/><line x1="-0.00" y1="66" x2="8.87" y2="112.11" stroke="#909090" stroke-width="0.8" stroke-dasharray="2 2"/><line x1="-0.00" y1="66" x2="18.69" y2="120.55" stroke="#909090" stroke-width="0.8" stroke-dasharray="2 2"/><line x1="33.00" y1="57.16" x2="32.61" y2="121.71" stroke="#909090" stroke-width="0.8" stroke-dasharray="2 2"/><line x1="33.00" y1="57.16" x2="54.09" y2="117.99" stroke="#909090" stroke-width="0.8" stroke-dasharray="2 2"/><line x1="33.00" y1="57.16" x2="64.35" y2="110.13" stroke="#909090" stroke-width="0.8" stroke-dasharray="2 2"/><line x1="33.00" y1="57.16" x2="71.59" y2="99.38" stroke="#909090" stroke-width="0.8" stroke-dasharray="2 2"/><line x1="33.00" y1="57.16" x2="78.49" y2="78.49" stroke="#909090" stroke-width="0.8" stroke-dasharray="2 2"/><line x1="33.00" y1="57.16" x2="88.06" y2="67.57" stroke="#909090" stroke-width="0.8" stroke-dasharray="2 2"/><line x1="57.16" y1="33.00" x2="87.04" y2="50.25" stroke="#909090" stroke-width="0.8" stroke-dasharray="2 2"/><line x1="57.16" y1="33.00" x2="101.52" y2="48.37" stroke="#909090" stroke-width="0.8" stroke-dasharray="2 2"/><line x1="57.16" y1="33.00" x2="113.74" y2="44.09" stroke="#909090" stroke-width="0.8" stroke-dasharray="2 2"/><line x1="66" y1="0.00" x2="121.71" y2="32.61" stroke="#909090" stroke-width="0.8" stroke-dasharray="2 2"/><line x1="66" y1="0.00" x2="129.23" y2="12.15" stroke="#909090" stroke-width="0.8" stroke-dasharray="2 2"/><line x1="66" y1="0.00" x2="127.55" y2="-0.66" stroke="#909090" stroke-width="0.8" stroke-dasharray="2 2"/><line x1="66" y1="0.00" x2="121.86" y2="-12.31" stroke="#909090" stroke-width="0.8" stroke-dasharray="2 2"/><line x1="66" y1="0.00" x2="107.22" y2="-28.73" stroke="#909090" stroke-width="0.8" stroke-dasharray="2 2"/><line x1="66" y1="0.00" x2="102.55" y2="-42.48" stroke="#909090" stroke-width="0.8" stroke-dasharray="2 2"/><line x1="57.16" y1="-33" x2="87.04" y2="-50.25" stroke="#909090" stroke-width="0.8" stroke-dasharray="2 2"/><line x1="57.16" y1="-33" x2="92.65" y2="-63.74" stroke="#909090" stroke-width="0.8" stroke-dasharray="2 2"/><line x1="57.16" y1="-33" x2="95.05" y2="-76.46" stroke="#909090" stroke-width="0.8" stroke-dasharray="2 2"/><line x1="33.00" y1="-57.16" x2="89.10" y2="-89.10" stroke="#909090" stroke-width="0.8" stroke-dasharray="2 2"/><line x1="33.00" y1="-57.16" x2="75.14" y2="-105.84" stroke="#909090" stroke-width="0.8" stroke-dasharray="2 2"/><line x1="33.00" y1="-57.16" x2="63.20" y2="-110.79" stroke="#909090" stroke-width="0.8" stroke-dasharray="2 2"/><line x1="33.00" y1="-57.16" x2="50.27" y2="-111.69" stroke="#909090" stroke-width="0.8" stroke-dasharray="2 2"/><line x1="33.00" y1="-57.16" x2="28.73" y2="-107.22" stroke="#909090" stroke-width="0.8" stroke-dasharray="2 2"/><line x1="33.00" y1="-57.16" x2="14.49" y2="-110.05" stroke="#909090" stroke-width="0.8" stroke-dasharray="2 2"/></g><g class="round" data-round="1" style="color: #222"><use href="#sym-MAGIC" x="0" y="0" transform="rotate(0 0 0)"/><use href="#sym-CHAIN" x="-22.95" y="-13.25" transform="rotate(-60.00 -22.95 -13.25)"/><use href="#sym-CHAIN" x="-34.21" y="-19.75" transform="rotate(-60.00 -34.21 -19.75)"/><use href="#sym-DC" x="-57.16" y="-33.00" transform="rotate(-60.00 -57.16 -33.00)"/><use href="#sym-DC" x="-66" y="-0.00" transform="rotate(-90 -66 -0.00)"/><use href="#sym-DC" x="-57.16" y="33.00" transform="rotate(-120.00 -57.16 33.00)"/><use href="#sym-DC" x="-33.00" y="57.16" transform="rotate(-150.00 -33.00 57.16)"/><use href="#sym-DC" x="-0.00" y="66" transform="rotate(-180 -0.00 66)"/><use href="#sym-DC" x="33.00" y="57.16" transform="rotate(-210.00 33.00 57.16)"/><use href="#sym-DC" x="57.16" y="33.00" transform="rotate(-240.00 57.16 33.00)"/><use href="#sym-DC" x="66" y="0.00" transform="rotate(-270 66 0.00)"/><use href="#sym-DC" x="57.16" y="-33" transform="rotate(-300.00 57.16 -33)"/><use href="#sym-DC" x="33.00" y="-57.16" transform="rotate(-330.00 33.00 -57.16)"/></g><g class="round" data-round="2" style="color: #222"><use href="#sym-SLIP" x="0.00" y="-100.50" transform="rotate(0 0.00 -100.50)"/><use href="#sym-SLIP" x="0.00" y="-100.50" transform="rotate(0 0.00 -100.50)"/><use href="#sym-CHAIN" x="-8.87" y="-112.11" transform="rotate(-41.94 -8.87 -112.11)"/><use href="#sym-CHAIN" x="-18.69" y="-120.55" transform="rotate(-59.72 -18.69 -120.55)"/><use href="#sym-DC" x="-32.61" y="-121.71" transform="rotate(-15.00 -32.61 -121.71)"/><use href="#sym-CHAIN" x="-54.09" y="-117.99" transform="rotate(243.39 -54.09 -117.99)"/><use href="#sym-CHAIN" x="-64.35" y="-110.13" transform="rotate(222.28 -64.35 -110.13)"/><use href="#sym-CHAIN" x="-71.59" y="-99.38" transform="rotate(206.69 -71.59 -99.38)"/><use href="#sym-SC" x="-78.49" y="-78.49" transform="rotate(-45 -78.49 -78.49)"/><use href="#sym-SC" x="-88.06" y="-67.57" transform="rotate(-52.50 -88.06 -67.57)"/><use href="#sym-SLIP" x="-87.04" y="-50.25" transform="rotate(-60.00 -87.04 -50.25)"/><use href="#sym-CHAIN" x="-101.52" y="-48.37" transform="rotate(258.06 -101.52 -48.37)"/><use href="#sym-CHAIN" x="-113.74" y="-44.09" transform="rotate(240.28 -113.74 -44.09)"/><use href="#sym-DC" x="-121.71" y="-32.61" transform="rotate(-75.00 -121.71 -32.61)"/><use href="#sym-CHAIN" x="-129.23" y="-12.15" transform="rotate(183.39 -129.23 -12.15)"/><use href="#sym-CHAIN" x="-127.55" y="0.66" transform="rotate(162.28 -127.55 0.66)"/><use href="#sym-CHAIN" x="-121.86" y="12.31" transform="rotate(146.69 -121.86 12.31)"/><use href="#sym-SC" x="-107.22" y="28.73" transform="rotate(-105.00 -107.22 28.73)"/><use href="#sym-SC" x="-102.55" y="42.48" transform="rotate(-112.50 -102.55 42.48)"/><use href="#sym-SLIP" x="-87.04" y="50.25" transform="rotate(240.00 -87.04 50.25)"/><use href="#sym-CHAIN" x="-92.65" y="63.74" transform="rotate(198.06 -92.65 63.74)"/><use href="#sym-CHAIN" x="-95.05" y="76.46" transform="rotate(180.28 -95.05 76.46)"/><use href="#sym-DC" x="-89.10" y="89.10" transform="rotate(-135 -89.10 89.10)"/><use href="#sym-CHAIN" x="-75.14" y="105.84" transform="rotate(123.39 -75.14 105.84)"/><use href="#sym-CHAIN" x="-63.20" y="110.79" transform="rotate(102.28 -63.20 110.79)"/><use href="#sym-CHAIN" x="-50.27" y="111.69" transform="rotate(86.69 -50.27 111.69)"/><use href="#sym-SC" x="-28.73" y="107.22" transform="rotate(-165.00 -28.73 107.22)"/><use href="#sym-SC" x="-14.49" y="110.05" transform="rotate(-172.50 -14.49 110.05)"/><use href="#sym-SLIP" x="-0.00" y="100.50" transform="rotate(180.00 -0.00 100.50)"/><use href="#sym-CHAIN" x="8.87" y="112.11" transform="rotate(138.06 8.87 112.11)"/><use href="#sym-CHAIN" x="18.69" y="120.55" transform="rotate(120.28 18.69 120.55)"/><use href="#sym-DC" x="32.61" y="121.71" transform="rotate(-195 32.61 121.71)"/><use href="#sym-CHAIN" x="54.09" y="117.99" transform="rotate(63.39 54.09 117.99)"/><use href="#sym-CHAIN" x="64.35" y="110.13" transform="rotate(42.28 64.35 110.13)"/><use href="#sym-CHAIN" x="71.59" y="99.38" transform="rotate(26.69 71.59 99.38)"/><use href="#sym-SC" x="78.49" y="78.49" transform="rotate(-225.00 78.49 78.49)"/><use href="#sym-SC" x="88.06" y="67.57" transform="rotate(-232.50 88.06 67.57)"/><use href="#sym-SLIP" x="87.04" y="50.25" transform="rotate(120.00 87.04 50.25)"/><use href="#sym-CHAIN" x="101.52" y="48.37" transform="rotate(78.06 101.52 48.37)"/><use href="#sym-CHAIN" x="113.74" y="44.09" transform="rotate(60.28 113.74 44.09)"/><use href="#sym-DC" x="121.71" y="32.61" transform="rotate(-255 121.71 32.61)"/><use href="#sym-CHAIN" x="129.23" y="12.15" transform="rotate(3.39 129.23 12.15)"/><use href="#sym-CHAIN" x="127.55" y="-0.66" transform="rotate(-17.72 127.55 -0.66)"/><use href="#sym-CHAIN" x="121.86" y="-12.31" transform="rotate(-33.31 121.86 -12.31)"/><use href="#sym-SC" x="107.22" y="-28.73" transform="rotate(-285 107.22 -28.73)"/><use href="#sym-SC" x="102.55" y="-42.48" transform="rotate(-292.50 102.55 -42.48)"/><use href="#sym-SLIP" x="87.04" y="-50.25" transform="rotate(60.00 87.04 -50.25)"/><use href="#sym-CHAIN" x="92.65" y="-63.74" transform="rotate(18.06 92.65 -63.74)"/><use href="#sym-CHAIN" x="95.05" y="-76.46" transform="rotate(0.28 95.05 -76.46)"/><use href="#sym-DC" x="89.10" y="-89.10" transform="rotate(-315 89.10 -89.10)"/><use href="#sym-CHAIN" x="75.14" y="-105.84" transform="rotate(-56.61 75.14 -105.84)"/><use href="#sym-CHAIN" x="63.20" y="-110.79" transform="rotate(-77.72 63.20 -110.79)"/><use href="#sym-CHAIN" x="50.27" y="-111.69" transform="rotate(266.69 50.27 -111.69)"/><use href="#sym-SC" x="28.73" y="-107.22" transform="rotate(-345.00 28.73 -107.22)"/><use href="#sym-SC" x="14.49" y="-110.05" transform="rotate(-352.50 14.49 -110.05)"/></g><g class="round-markers"><path d="M 14.50,-44 L 7.50,-40.50 L 14.50,-37 Z" fill="#222"/><text x="17" y="-40.50" font-size="8" font-family="system-ui, sans-serif" font-weight="600" fill="#222" text-anchor="start" dominant-baseline="central">1</text><path d="M 14.50,-104 L 7.50,-100.50 L 14.50,-97 Z" fill="#222"/><text x="17.00" y="-100.50" font-size="8" font-family="system-ui, sans-serif" font-weight="600" fill="#222" text-anchor="start" dominant-baseline="central">2</text></g></svg>